# xmcd
#
# Track frame offsets: 
#        150
#        27387
#        41597
#        61172
#        95292
#        112143
#        126642
#        146526
#        164496
#        182811
#        205852
#        221981
#        239436
#
# Disc length: 3635 seconds
#
# Revision: 0
# Processed by: cddbd v1.5.2PL0 Copyright (c) Steve Scherf et al.
# Submitted via: ExactAudioCopy v1.0b1
#
DISCID=ca0e310d
DTITLE=Dudley Taft - Left For Dead
DYEAR=2011
DGENRE=Blues Rock
TTITLE0=Aint No Game
TTITLE1=Back Door Man
TTITLE2=Broken Down
TTITLE3=Have You Ever Loved A Woman
TTITLE4=Left For Dead
TTITLE5=When Your Way Gets Dark
TTITLE6=Devils Crown
TTITLE7=Long Way Down (Left For Dead Pt II)
TTITLE8=Blue Lady
TTITLE9=Drifting
TTITLE10=Seventh Son
TTITLE11=If Youll Come Home
TTITLE12=When The Levee Breaks
EXTD=
EXTT0=
EXTT1=
EXTT2=
EXTT3=
EXTT4=
EXTT5=
EXTT6=
EXTT7=
EXTT8=
EXTT9=
EXTT10=
EXTT11=
EXTT12=
PLAYORDER=
